<?xml version="1.0" standalone="no"?>
<!DOCTYPE svg PUBLIC "-//W3C//DTD SVG 20010904//EN"
 "http://www.w3.org/TR/2001/REC-SVG-20010904/DTD/svg10.dtd">
<svg version="1.0" xmlns="http://www.w3.org/2000/svg"
 width="1703.000000pt" height="366.000000pt" viewBox="0 0 1703.000000 366.000000"
 preserveAspectRatio="xMidYMid meet">

<g transform="translate(0.000000,366.000000) scale(0.100000,-0.100000)"
fill="#000000" stroke="none">
<path d="M145 3525 l-25 -24 0 -1649 0 -1649 21 -27 20 -26 239 0 239 0 20 26
c21 27 21 30 21 1001 0 900 1 974 16 971 14 -2 58 -189 231 -978 197 -900 215
-977 239 -998 24 -21 34 -22 168 -22 138 0 143 1 165 24 20 21 55 169 232 978
114 524 211 963 214 976 3 12 12 22 20 22 13 0 15 -120 15 -974 0 -970 0 -973
21 -1000 l20 -26 239 0 c219 0 240 1 261 19 l24 19 3 1619 c2 890 0 1637 -3
1661 -12 84 -2 82 -364 82 -293 0 -321 -1 -341 -18 -26 -21 -16 21 -316 -1324
-103 -466 -190 -845 -192 -843 -2 2 -111 484 -242 1071 -223 1003 -240 1070
-265 1091 -26 23 -28 23 -341 23 l-315 0 -24 -25z"/>
<path d="M2989 3103 c-21 -24 -21 -2912 0 -2936 12 -16 83 -17 837 -17 804 0
824 0 834 19 6 12 10 113 10 258 0 191 -3 243 -14 259 -14 18 -33 19 -560 22
l-546 2 0 315 0 315 415 0 c402 0 416 1 435 20 19 19 20 33 20 258 0 199 -3
241 -16 260 l-15 22 -420 0 -419 0 0 330 0 330 540 0 c527 0 540 0 560 20 19
19 20 33 20 264 0 209 -2 247 -16 260 -14 14 -103 16 -833 16 -749 0 -820 -1
-832 -17z"/>
<path d="M5120 3100 c-20 -20 -20 -33 -20 -1456 0 -1449 0 -1464 34 -1486 6
-4 118 -8 248 -8 l237 0 20 26 c21 27 21 32 21 880 0 735 2 854 14 854 8 0 17
-8 20 -17 3 -10 91 -380 196 -823 225 -948 206 -876 231 -901 17 -17 34 -19
189 -19 155 0 172 2 189 19 25 25 6 -48 231 901 105 443 193 813 196 823 3 9
12 17 20 17 12 0 14 -119 14 -854 0 -848 0 -853 21 -880 l20 -26 239 0 c219 0
240 1 261 19 l24 19 0 1447 0 1447 -24 19 c-22 18 -43 19 -341 19 -300 0 -319
-1 -342 -20 -23 -17 -48 -112 -264 -980 -159 -641 -241 -956 -246 -943 -5 10
-112 436 -239 947 -126 511 -236 941 -244 956 -8 15 -22 30 -30 34 -9 3 -160
6 -336 6 -306 0 -320 -1 -339 -20z"/>
<path d="M8385 3105 c-204 -44 -331 -154 -395 -340 -38 -110 -42 -230 -38
-1205 4 -920 4 -936 25 -1012 31 -110 67 -174 137 -244 66 -66 126 -101 221
-131 54 -16 100 -18 475 -18 l415 0 73 27 c139 50 231 130 289 250 64 132 63
104 63 1200 0 1108 2 1069 -69 1214 -49 99 -113 162 -214 210 -124 59 -170 64
-567 63 -254 0 -372 -4 -415 -14z m661 -551 c15 -11 37 -33 48 -48 21 -27 21
-35 21 -871 0 -836 0 -844 -21 -871 -50 -68 -55 -69 -277 -69 -227 0 -251 6
-292 75 -20 34 -20 48 -20 865 0 917 -3 866 62 913 42 29 52 30 260 29 177 -2
194 -4 219 -23z"/>
<path d="M10099 3103 c-20 -23 -26 -2885 -6 -2923 l13 -25 246 -3 c214 -2 248
0 262 14 14 14 16 66 16 445 l0 429 194 0 194 0 67 -277 c129 -535 143 -587
161 -600 23 -16 475 -19 505 -3 10 6 19 20 19 31 0 11 -50 226 -111 479 l-111
460 66 63 c76 74 127 170 151 282 22 103 22 1117 0 1220 -35 166 -125 289
-258 355 -140 69 -150 70 -808 70 -534 0 -588 -1 -600 -17z m1051 -546 c81
-42 80 -39 80 -472 0 -433 1 -430 -80 -472 -41 -22 -53 -23 -282 -23 l-238 0
0 495 0 495 238 0 c229 0 241 -1 282 -23z"/>
<path d="M12226 3098 c-14 -20 -16 -175 -16 -1458 0 -1136 3 -1440 13 -1460
l13 -25 259 -3 c255 -2 260 -2 278 19 16 20 17 105 17 1463 0 1289 -2 1444
-16 1464 -15 22 -18 22 -274 22 -256 0 -259 0 -274 -22z"/>
<path d="M13236 3104 c-14 -14 -16 -161 -16 -1469 0 -1308 2 -1455 16 -1469
14 -14 103 -16 833 -16 622 0 820 3 829 12 9 9 12 81 12 264 0 250 0 253 -22
268 -20 14 -90 16 -560 16 l-538 0 2 313 3 312 414 3 c368 2 417 4 433 19 16
15 18 37 18 263 0 226 -2 248 -18 263 -16 15 -65 17 -433 19 l-414 3 -3 328
-2 327 543 0 c514 0 545 1 560 18 15 16 17 50 17 268 0 181 -3 253 -12 262 -9
9 -207 12 -829 12 -730 0 -819 -2 -833 -16z"/>
<path d="M15640 3104 c-163 -36 -291 -131 -355 -265 -64 -133 -66 -160 -63
-676 l3 -461 25 -27 c37 -40 64 -51 315 -132 126 -41 355 -115 508 -164 l277
-90 0 -245 c0 -277 -4 -296 -69 -336 -32 -20 -52 -23 -177 -26 -169 -5 -240 7
-278 47 -37 39 -46 79 -46 217 0 104 -2 123 -18 137 -16 15 -50 17 -265 17
-210 0 -248 -2 -261 -16 -14 -13 -16 -48 -16 -227 0 -242 11 -312 64 -422 60
-124 149 -202 290 -254 l71 -26 415 0 c375 0 421 2 475 18 95 30 155 65 221
131 70 70 106 135 136 244 20 72 22 107 26 541 3 330 0 477 -8 510 -22 87 -26
89 -435 222 -203 66 -446 145 -539 176 l-168 55 4 207 c4 226 9 249 71 295 26
19 43 21 210 24 159 2 186 0 216 -15 67 -35 75 -58 81 -217 4 -100 9 -148 19
-159 12 -15 43 -17 266 -17 223 0 254 2 266 17 21 25 18 424 -4 515 -29 118
-70 193 -146 268 -57 56 -82 73 -147 98 -44 17 -106 35 -138 41 -92 17 -744
13 -826 -5z"/>
</g>
</svg>
