<?xml version="1.0" standalone="no"?>
<!DOCTYPE svg PUBLIC "-//W3C//DTD SVG 20010904//EN"
 "http://www.w3.org/TR/2001/REC-SVG-20010904/DTD/svg10.dtd">
<svg version="1.0" xmlns="http://www.w3.org/2000/svg"
 width="512.000000pt" height="512.000000pt" viewBox="0 0 512.000000 512.000000"
 preserveAspectRatio="xMidYMid meet">
<metadata>
Created by potrace 1.14, written by Peter Selinger 2001-2017
</metadata>
<g transform="translate(0.000000,512.000000) scale(0.100000,-0.100000)"
fill="#000000" stroke="none">
<path d="M330 3400 l0 -1390 1390 0 1390 0 0 1390 0 1390 -1390 0 -1390 0 0
-1390z m1101 704 c107 -32 201 -110 258 -213 l29 -54 27 53 c38 76 121 154
202 193 62 29 77 32 163 32 86 0 101 -3 160 -31 187 -90 286 -285 258 -512
-37 -306 -310 -612 -737 -827 l-73 -36 -92 45 c-243 121 -471 306 -587 477
-129 191 -170 408 -109 583 77 224 296 351 501 290z"/>
<path d="M3440 2548 c0 -828 1 -820 -52 -850 -18 -10 -186 -14 -843 -18 l-820
-5 -69 -443 c-38 -243 -66 -445 -63 -448 7 -8 2736 -428 2742 -423 9 9 427
2740 420 2747 -3 4 -301 52 -661 107 l-654 101 0 -768z"/>
</g>
</svg>
