<?xml version="1.0" standalone="no"?>
<!DOCTYPE svg PUBLIC "-//W3C//DTD SVG 20010904//EN"
 "http://www.w3.org/TR/2001/REC-SVG-20010904/DTD/svg10.dtd">
<svg version="1.0" xmlns="http://www.w3.org/2000/svg"
 width="986.000000pt" height="986.000000pt" viewBox="0 0 986.000000 986.000000"
 preserveAspectRatio="xMidYMid meet">
<metadata>
Created by potrace 1.14, written by Peter Selinger 2001-2017
</metadata>
<g transform="translate(0.000000,986.000000) scale(0.100000,-0.100000)"
fill="#000000" stroke="none">
<path d="M4655 9659 c-142 -9 -445 -49 -545 -72 l-55 -12 -26 -250 c-15 -138
-30 -269 -33 -291 l-5 -42 82 19 c562 129 1160 138 1722 28 415 -82 833 -235
1215 -447 110 -61 284 -172 387 -248 l72 -53 188 86 c103 47 229 103 278 125
50 22 92 41 94 43 8 9 -204 173 -374 291 -380 262 -793 464 -1240 608 -568
182 -1145 252 -1760 215z"/>
<path d="M3390 9410 c-74 -23 -305 -121 -445 -189 -580 -280 -1082 -666 -1501
-1152 -136 -158 -149 -175 -260 -329 -260 -361 -469 -761 -624 -1198 -18 -51
-31 -94 -29 -95 7 -6 239 -170 278 -198 20 -14 77 -55 127 -91 l91 -66 18 66
c10 37 39 130 65 207 289 855 877 1591 1685 2110 162 104 441 254 551 296 17
6 24 19 29 51 8 62 55 549 55 576 0 24 -2 24 -40 12z"/>
<path d="M8364 8047 c-72 -34 -190 -89 -262 -122 -73 -33 -132 -62 -132 -65 0
-3 37 -46 83 -95 254 -278 445 -553 613 -880 350 -681 496 -1462 418 -2226
l-6 -64 128 -87 c71 -48 197 -135 279 -192 l150 -104 8 35 c4 19 17 108 28
197 27 204 37 698 19 910 -74 879 -369 1677 -883 2395 -140 195 -279 362 -302
360 -5 0 -69 -28 -141 -62z"/>
<path d="M4640 7460 c-565 -90 -1048 -340 -1440 -747 -358 -371 -569 -799
-650 -1318 -28 -179 -31 -510 -6 -680 50 -332 129 -585 267 -853 248 -482 619
-850 1084 -1077 254 -124 452 -184 760 -231 156 -23 528 -24 685 0 398 60 704
171 1000 363 314 204 614 521 787 833 71 128 85 155 131 262 146 337 212 657
212 1029 0 389 -74 713 -240 1054 -124 256 -262 448 -465 650 -276 276 -601
482 -947 601 -107 37 -250 75 -343 93 -33 6 -85 16 -115 22 -30 6 -176 12
-325 14 -233 4 -287 2 -395 -15z m223 -1485 c73 -36 160 -127 193 -200 113
-256 -41 -542 -316 -586 -173 -28 -358 69 -435 225 -35 72 -50 188 -34 265 22
106 86 207 167 263 84 58 124 68 252 65 103 -2 121 -6 173 -32z m765 -1524
c72 -37 112 -104 112 -186 0 -62 -19 -103 -68 -147 -84 -76 -197 -73 -278 7
-72 73 -82 167 -25 257 52 82 172 114 259 69z"/>
<path d="M352 5708 c-42 -271 -52 -411 -52 -726 0 -324 11 -472 56 -757 117
-743 435 -1477 908 -2095 79 -104 235 -290 243 -290 2 0 81 35 176 79 95 43
219 100 277 126 58 26 108 50 113 54 4 4 -23 41 -60 82 -551 604 -886 1282
-1052 2129 -54 278 -77 653 -61 1039 l5 125 -260 187 c-143 103 -263 188 -266
188 -3 1 -15 -63 -27 -141z"/>
<path d="M8950 3927 c-18 -74 -96 -307 -135 -407 -238 -608 -573 -1108 -1036
-1545 -316 -298 -683 -544 -1079 -720 -58 -26 -106 -48 -107 -49 -4 -4 -72
-660 -69 -664 2 -1 27 6 57 17 313 109 712 307 999 496 784 516 1398 1258
1758 2125 75 181 156 415 149 432 -2 7 -38 35 -78 63 -41 27 -153 104 -249
171 -96 66 -180 123 -186 127 -6 4 -16 -14 -24 -46z"/>
<path d="M2250 1545 c-162 -74 -296 -135 -298 -135 -8 0 135 -116 238 -192
630 -467 1321 -754 2133 -883 279 -45 750 -57 1091 -30 159 13 439 53 498 71
12 4 18 22 23 72 3 37 18 176 32 310 14 133 23 245 20 249 -3 3 -41 -2 -84
-11 -332 -69 -538 -89 -908 -89 -444 1 -755 41 -1143 149 -431 120 -879 332
-1214 575 -37 27 -73 49 -80 49 -7 0 -146 -61 -308 -135z"/>
</g>
</svg>
